<?xml version="1.0" encoding="UTF-8"?>
<svg height="16px" viewBox="0 0 16 16" width="16px" xmlns="http://www.w3.org/2000/svg" xmlns:xlink="http://www.w3.org/1999/xlink">
    <filter id="a" height="100%" width="100%" x="0%" y="0%">
        <feColorMatrix in="SourceGraphic" type="matrix" values="0 0 0 0 1 0 0 0 0 1 0 0 0 0 1 0 0 0 1 0"/>
    </filter>
    <mask id="b">
        <g filter="url(#a)">
            <rect fill-opacity="0.1" height="16" width="16"/>
        </g>
    </mask>
    <clipPath id="c">
        <rect height="152" width="192"/>
    </clipPath>
    <g clip-path="url(#c)" mask="url(#b)" transform="matrix(1 0 0 1 -168 -16)">
        <path d="m 115.582031 28.496094 h -87.164062 c -4.375 0 -7.921875 3.546875 -7.921875 7.921875 v 87.164062 c 0 4.375 3.546875 7.921875 7.921875 7.921875 h 87.164062 c 4.375 0 7.921875 -3.546875 7.921875 -7.921875 v -87.164062 c 0 -4.375 -3.546875 -7.921875 -7.921875 -7.921875 z m 0 0" stroke="#000000" stroke-dasharray="0.99 0.99" stroke-width="0.99" transform="matrix(1 0 0 1 0 1)"/>
    </g>
    <path d="m 9 0 c -0.363281 0 -0.699219 0.199219 -0.875 0.515625 c -0.175781 0.320313 -0.164062 0.710937 0.03125 1.015625 c 1.078125 1.71875 1.242188 3.46875 0.933594 5.144531 c -0.339844 -0.074219 -0.546875 -0.117187 -0.898438 -0.1875 c -1.570312 -0.304687 -3.277344 -0.515625 -4.773437 0.253907 c -1.496094 0.769531 -2.417969 2.546874 -2.417969 5.257812 c 0 1.019531 0.210938 1.875 0.742188 2.511719 s 1.375 0.910156 2.132812 0.863281 c 1.523438 -0.101562 2.96875 -1.109375 4.273438 -2.535156 c 0.949218 -1.035156 1.699218 -2.386719 2.269531 -3.851563 c 0.542969 0.121094 1.113281 0.289063 1.621093 0.335938 c 0.65625 0.054687 1.328126 0.050781 1.960938 -0.335938 c 0.636719 -0.382812 1 -1.191406 1 -1.988281 c 0 -0.550781 -0.449219 -1 -1 -1 s -1 0.449219 -1 1 c 0 0.363281 -0.011719 0.265625 -0.03125 0.28125 c -0.023438 0.011719 -0.289062 0.089844 -0.757812 0.046875 c -0.269532 -0.023437 -0.808594 -0.167969 -1.167969 -0.242187 c 0.308593 -1.625 0.0625 -3.367188 -0.621094 -5.085938 h 4.578125 c 0.550781 0 1 -0.449219 1 -1 s -0.449219 -1 -1 -1 z m -3.183594 8.238281 c 0.597656 -0.003906 1.277344 0.074219 1.992188 0.214844 c 0.21875 0.042969 0.425781 0.082031 0.648437 0.132813 c -0.472656 1.089843 -1.058593 2.117187 -1.78125 2.902343 c -1.082031 1.1875 -2.34375 1.851563 -2.929687 1.886719 c -0.292969 0.019531 -0.359375 -0.015625 -0.46875 -0.144531 c -0.109375 -0.132813 -0.277344 -0.5 -0.277344 -1.230469 c 0 -2.3125 0.578125 -3.09375 1.332031 -3.480469 c 0.375 -0.191406 0.886719 -0.277343 1.484375 -0.28125 z m 0 0"/>
</svg>
