<?xml version="1.0" encoding="UTF-8"?>
<svg height="128px" viewBox="0 0 128 128" width="128px" xmlns="http://www.w3.org/2000/svg" xmlns:xlink="http://www.w3.org/1999/xlink">
    <filter id="a" height="100%" width="100%" x="0%" y="0%">
        <feColorMatrix in="SourceGraphic" type="matrix" values="0 0 0 0 1 0 0 0 0 1 0 0 0 0 1 0 0 0 1 0"/>
    </filter>
    <mask id="b">
        <g filter="url(#a)">
            <rect fill-opacity="0.1" height="128" width="128"/>
        </g>
    </mask>
    <clipPath id="c">
        <rect height="152" width="192"/>
    </clipPath>
    <linearGradient id="d" gradientUnits="userSpaceOnUse" x1="12" x2="116" y1="117" y2="117">
        <stop offset="0" stop-color="#241f31"/>
        <stop offset="0.0384615" stop-color="#5e5c64"/>
        <stop offset="0.0768555" stop-color="#241f31"/>
        <stop offset="0.921875" stop-color="#241f31"/>
        <stop offset="0.951333" stop-color="#77767b"/>
        <stop offset="0.961438" stop-color="#5e5c64"/>
        <stop offset="1" stop-color="#241f31"/>
    </linearGradient>
    <linearGradient id="e" gradientUnits="userSpaceOnUse" x1="27.5" x2="64" y1="32.5" y2="108">
        <stop offset="0" stop-color="#5e5c64"/>
        <stop offset="0.171309" stop-color="#949390"/>
        <stop offset="0.27864" stop-color="#dc8add"/>
        <stop offset="0.367764" stop-color="#949390"/>
        <stop offset="1" stop-color="#5e5c64"/>
    </linearGradient>
    <radialGradient id="f" cx="0" cy="0" gradientTransform="matrix(-83.999573 69.000481 -71.760345 -87.359367 111.5 13)" gradientUnits="userSpaceOnUse" r="1">
        <stop offset="0" stop-color="#f6f5f4" stop-opacity="0.6"/>
        <stop offset="1" stop-color="#0b0b0b" stop-opacity="0.709804"/>
    </radialGradient>
    <linearGradient id="g" gradientUnits="userSpaceOnUse">
        <stop offset="0" stop-color="#1c71d8"/>
        <stop offset="0.498251" stop-color="#62a0ea"/>
        <stop offset="1" stop-color="#1c71d8"/>
    </linearGradient>
    <linearGradient id="h" gradientTransform="matrix(0.965271 0.557299 -0.557299 0.965271 113.296969 -209.647328)" x1="90" x2="104" xlink:href="#g" y1="257" y2="257"/>
    <linearGradient id="i" gradientTransform="matrix(0.965271 0.557299 -0.557299 0.965271 113.854269 -210.612598)" gradientUnits="userSpaceOnUse" x1="90" x2="104" y1="220.5" y2="220.5">
        <stop offset="0" stop-color="#9a9996"/>
        <stop offset="0.285714" stop-color="#deddda"/>
        <stop offset="0.495933" stop-color="#ffffff"/>
        <stop offset="0.714286" stop-color="#deddda"/>
        <stop offset="1" stop-color="#9a9996"/>
    </linearGradient>
    <linearGradient id="j" gradientTransform="matrix(0.866025 0.5 -0.5 0.866025 65.259951 -214.212676)" x1="144" x2="160" xlink:href="#g" y1="174" y2="174"/>
    <g clip-path="url(#c)" mask="url(#b)" transform="matrix(1 0 0 1 -8 -16)">
        <path d="m 115.582031 28.496094 h -87.164062 c -4.375 0 -7.921875 3.546875 -7.921875 7.921875 v 87.164062 c 0 4.375 3.546875 7.921875 7.921875 7.921875 h 87.164062 c 4.375 0 7.921875 -3.546875 7.921875 -7.921875 v -87.164062 c 0 -4.375 -3.546875 -7.921875 -7.921875 -7.921875 z m 0 0" stroke="#000000" stroke-dasharray="0.99 0.99" stroke-width="0.99" transform="matrix(1 0 0 1 0 1)"/>
    </g>
    <path d="m 108 17 h -88 c -4.417969 0 -8 3.582031 -8 8 v 84 c 0 4.417969 3.582031 8 8 8 h 88 c 4.417969 0 8 -3.582031 8 -8 v -84 c 0 -4.417969 -3.582031 -8 -8 -8 z m 0 0" fill="url(#d)"/>
    <path d="m 108 13 h -88 c -4.417969 0 -8 3.582031 -8 8 v 84 c 0 4.417969 3.582031 8 8 8 h 88 c 4.417969 0 8 -3.582031 8 -8 v -84 c 0 -4.417969 -3.582031 -8 -8 -8 z m 0 0" fill="#3d3846"/>
    <path d="m 19 63 c 0 -24.851562 20.148438 -45 45 -45 s 45 20.148438 45 45 s -20.148438 45 -45 45 s -45 -20.148438 -45 -45 z m 0 0" fill="url(#e)"/>
    <path d="m 64.5 47 c 9.664062 0 17.5 7.835938 17.5 17.5 s -7.835938 17.5 -17.5 17.5 s -17.5 -7.835938 -17.5 -17.5 s 7.835938 -17.5 17.5 -17.5 z m 0 0"/>
    <path d="m 108 13 h -88 c -4.417969 0 -8 3.582031 -8 8 v 84 c 0 4.417969 3.582031 8 8 8 h 88 c 4.417969 0 8 -3.582031 8 -8 v -84 c 0 -4.417969 -3.582031 -8 -8 -8 z m 0 0" fill="url(#f)"/>
    <path d="m 23 20 h 46 c 3.3125 0 6 2.6875 6 6 v 73 c 0 3.3125 -2.6875 6 -6 6 h -46 c -3.3125 0 -6 -2.6875 -6 -6 v -73 c 0 -3.3125 2.6875 -6 6 -6 z m 0 0" fill="#f6f5f4"/>
    <g fill="none" stroke="#dbdbdb" stroke-width="2">
        <path d="m 24 31 h 46"/>
        <path d="m 24 39 h 46"/>
        <path d="m 24 47 h 46"/>
        <path d="m 24 55 h 46"/>
        <path d="m 24 63 h 46"/>
        <path d="m 24 71 h 46"/>
        <path d="m 24 77 h 46"/>
        <path d="m 24 85 h 46"/>
        <path d="m 24 93 h 46"/>
        <path d="m 24 93 h 46"/>
    </g>
    <path d="m 82 55 c 0 -2.210938 1.789062 -4 4 -4 h 30 v 25 h -30 c -2.210938 0 -4 -1.789062 -4 -4 z m 0 0" fill="#99c1f1"/>
    <path d="m 42.5 33 c -0.695312 0 -1.339844 0.363281 -1.703125 0.957031 c -0.363281 0.589844 -0.394531 1.332031 -0.078125 1.949219 c 2.566406 5.039062 3.5625 10.21875 3.601562 15.109375 c -1.753906 -0.734375 -3.570312 -1.347656 -5.449218 -1.507813 c -1.957032 -0.164062 -4.058594 0.222657 -5.792969 1.554688 c -3.464844 2.65625 -5.078125 8.074219 -5.078125 17.9375 c 0 3.003906 0.390625 5.277344 1.328125 7.03125 c 0.933594 1.75 2.753906 2.925781 4.578125 2.875 c 1.828125 -0.050781 3.429688 -0.976562 4.925781 -2.28125 c 1.496094 -1.308594 2.90625 -3.078125 4.195313 -5.21875 c 2.246094 -3.738281 4.0625 -8.691406 4.878906 -14.210938 c 1.613281 0.8125 3.214844 1.5625 4.765625 1.992188 c 1.566406 0.429688 3.449219 0.5625 4.921875 -0.65625 s 1.90625 -3.136719 1.90625 -5.53125 c 0 -1.105469 -0.894531 -2 -2 -2 s -2 0.894531 -2 2 c 0 1.855469 -0.425781 2.421875 -0.457031 2.449219 c -0.03125 0.023437 -0.296875 0.160156 -1.308594 -0.121094 c -1.292969 -0.355469 -3.277344 -1.351563 -5.433594 -2.425781 c 0.203125 -5.09375 -0.601562 -10.503906 -2.800781 -15.902344 h 13 c 1.105469 0 2 -0.894531 2 -2 s -0.894531 -2 -2 -2 z m -3.96875 20.496094 c 1.269531 0.105468 2.816406 0.589844 4.433594 1.28125 c 0.363281 0.15625 0.734375 0.367187 1.101562 0.539062 c -0.613281 5.527344 -2.335937 10.488282 -4.46875 14.027344 c -1.117187 1.859375 -2.324218 3.324219 -3.398437 4.265625 c -1.078125 0.945313 -2.003907 1.285156 -2.402344 1.296875 c -0.402344 0.011719 -0.507813 0.046875 -0.941406 -0.765625 c -0.433594 -0.808594 -0.855469 -2.519531 -0.855469 -5.140625 c 0 -9.386719 1.824219 -13.46875 3.515625 -14.765625 c 0.84375 -0.644531 1.75 -0.847656 3.015625 -0.738281 z m 0 0" fill="#62a0ea"/>
    <path d="m 59.5 72 c -1.25 0 -1.679688 0.390625 -2.515625 0.824219 c -0.835937 0.433593 -1.8125 1.015625 -2.9375 1.726562 c -2.242187 1.425781 -5.046875 3.363281 -8.046875 5.511719 c -6.007812 4.292969 -12.789062 9.425781 -17.222656 12.855469 c -0.875 0.675781 -1.035156 1.933593 -0.359375 2.808593 c 0.675781 0.871094 1.933593 1.03125 2.804687 0.355469 c 4.402344 -3.402343 11.167969 -8.519531 17.105469 -12.769531 c 2.964844 -2.121094 5.730469 -4.027344 7.863281 -5.378906 c 1.066406 -0.679688 1.976563 -1.214844 2.636719 -1.558594 c 0.65625 -0.339844 1.320313 -0.375 0.671875 -0.375 c 1.105469 0 2 -0.894531 2 -2 s -0.894531 -2 -2 -2 z m 0 0" fill="#62a0ea"/>
    <path d="m 50.625 110.675781 l 5.253906 -0.183593 l -3.898437 6.757812 l -5.535157 0.664062 z m 0 0" fill="#1a5fb4"/>
    <path d="m 74.289062 74.144531 c -3.742187 -2.160156 -8.496093 -0.886719 -10.65625 2.855469 l -13.375 23.167969 c -1.773437 3.070312 -1.230468 6.820312 1.089844 9.261719 l -1.835937 3.175781 l 3.859375 2.230469 l 1.835937 -3.179688 c 3.273438 0.789062 6.792969 -0.617188 8.566407 -3.6875 l 13.375 -23.164062 c 2.160156 -3.746094 0.886718 -8.5 -2.859376 -10.660157 z m 0 0" fill="url(#h)"/>
    <path d="m 113.769531 1.308594 c -2.675781 -1.542969 -6.070312 -0.632813 -7.613281 2.039062 l -2.785156 4.828125 l -48.65625 84.269531 l -3.34375 5.792969 l 13.515625 7.800781 l 3.34375 -5.792968 l 48.652343 -84.269532 l 2.789063 -4.828124 c 1.542969 -2.671876 0.632813 -6.066407 -2.042969 -7.609376 z m 0 0" fill="url(#i)"/>
    <path d="m 58.058594 86.652344 l 13.515625 7.804687 l -2.230469 3.859375 l -13.511719 -7.800781 z m 0 0" fill="#1c71d8"/>
    <path d="m 114.164062 1.082031 c -2.878906 -1.660156 -6.757812 -0.292969 -8.695312 3.0625 l -1.5 2.597657 l -7 12.125 l 5.195312 3 l 3.464844 2 l 5.195313 3 l 7 -12.125 l 1.5 -2.597657 c 1.9375 -3.355469 1.183593 -7.398437 -1.695313 -9.0625 z m 0 0" fill="url(#j)"/>
    <path d="m 98.347656 16.476562 l 13.855469 8 l -1.378906 2.390626 l -13.855469 -8 z m 0 0" fill="#1c71d8"/>
</svg>
