<?xml version="1.0" encoding="utf-8"?>
<!-- Generator: Adobe Illustrator 26.3.1, SVG Export Plug-In . SVG Version: 6.00 Build 0)  -->
<svg version="1.1" id="Layer_1" xmlns="http://www.w3.org/2000/svg" xmlns:xlink="http://www.w3.org/1999/xlink" x="0px" y="0px"
	 viewBox="0 0 128 128" style="enable-background:new 0 0 128 128;" xml:space="preserve">
<style type="text/css">
	.st0{fill:url(#SVGID_1_);}
	.st1{fill:#3D3846;}
	.st2{fill:url(#SVGID_00000031173346757735951830000006167432408059532472_);}
	.st3{fill:url(#SVGID_00000029007748581876846000000008824413755525886638_);}
	.st4{fill:#F6F5F4;}
	.st5{fill:none;stroke:#DBDBDB;stroke-width:2;}
	.st6{fill:#99C1F1;}
	.st7{fill:#62A0EA;}
	.st8{fill:#1A5FB4;}
	.st9{fill:url(#SVGID_00000169517130918255278710000002375460935990784407_);}
	.st10{fill:url(#SVGID_00000154393968521554252050000002821907844556010421_);}
	.st11{fill:#1C71D8;}
	.st12{fill:url(#SVGID_00000014618191644047867830000004665948384289932163_);}
</style>
<linearGradient id="SVGID_1_" gradientUnits="userSpaceOnUse" x1="12" y1="63" x2="116" y2="63" gradientTransform="matrix(1 0 0 -1 0 130)">
	<stop  offset="0" style="stop-color:#241F31"/>
	<stop  offset="3.846150e-02" style="stop-color:#5E5C64"/>
	<stop  offset="7.685550e-02" style="stop-color:#241F31"/>
	<stop  offset="0.9219" style="stop-color:#241F31"/>
	<stop  offset="0.9513" style="stop-color:#77767B"/>
	<stop  offset="0.9614" style="stop-color:#5E5C64"/>
	<stop  offset="1" style="stop-color:#241F31"/>
</linearGradient>
<path class="st0" d="M108,17H20c-4.4,0-8,3.6-8,8v84c0,4.4,3.6,8,8,8h88c4.4,0,8-3.6,8-8V25C116,20.6,112.4,17,108,17z"/>
<path class="st1" d="M108,13H20c-4.4,0-8,3.6-8,8v84c0,4.4,3.6,8,8,8h88c4.4,0,8-3.6,8-8V21C116,16.6,112.4,13,108,13z"/>
<linearGradient id="SVGID_00000182526303794741404050000005736492107785393560_" gradientUnits="userSpaceOnUse" x1="45.1337" y1="106.0249" x2="81.6337" y2="30.5249" gradientTransform="matrix(1 0 0 -1 0 130)">
	<stop  offset="0" style="stop-color:#5E5C64"/>
	<stop  offset="0.1713" style="stop-color:#949390"/>
	<stop  offset="0.2786" style="stop-color:#DC8ADD"/>
	<stop  offset="0.3678" style="stop-color:#949390"/>
	<stop  offset="1" style="stop-color:#5E5C64"/>
</linearGradient>
<path style="fill:url(#SVGID_00000182526303794741404050000005736492107785393560_);" d="M19,63c0-24.9,20.1-45,45-45s45,20.1,45,45
	s-20.1,45-45,45S19,87.9,19,63z"/>
<path d="M64.5,47C74.2,47,82,54.8,82,64.5S74.2,82,64.5,82S47,74.2,47,64.5S54.8,47,64.5,47z"/>
<radialGradient id="SVGID_00000103963001203784389140000004936475473536108198_" cx="-898.5884" cy="613.2716" r="1" gradientTransform="matrix(-83.9996 69.0005 71.7603 87.3594 -119378.125 8441.0127)" gradientUnits="userSpaceOnUse">
	<stop  offset="0" style="stop-color:#F6F5F4;stop-opacity:0.6"/>
	<stop  offset="1" style="stop-color:#0B0B0B;stop-opacity:0.7098"/>
</radialGradient>
<path style="fill:url(#SVGID_00000103963001203784389140000004936475473536108198_);" d="M108,13H20c-4.4,0-8,3.6-8,8v84
	c0,4.4,3.6,8,8,8h88c4.4,0,8-3.6,8-8V21C116,16.6,112.4,13,108,13z"/>
<path class="st4" d="M23,20h46c3.3,0,6,2.7,6,6v73c0,3.3-2.7,6-6,6H23c-3.3,0-6-2.7-6-6V26C17,22.7,19.7,20,23,20z"/>
<g>
	<path class="st5" d="M24,31h46"/>
	<path class="st5" d="M24,39h46"/>
	<path class="st5" d="M24,47h46"/>
	<path class="st5" d="M24,55h46"/>
	<path class="st5" d="M24,63h46"/>
	<path class="st5" d="M24,71h46"/>
	<path class="st5" d="M24,77h46"/>
	<path class="st5" d="M24,85h46"/>
	<path class="st5" d="M24,93h46"/>
	<path class="st5" d="M24,93h46"/>
</g>
<path class="st6" d="M82,55c0-2.2,1.8-4,4-4h30v25H86c-2.2,0-4-1.8-4-4V55z"/>
<path class="st7" d="M42.5,33c-0.7,0-1.3,0.4-1.7,1c-0.4,0.6-0.4,1.3-0.1,1.9c2.6,5,3.6,10.2,3.6,15.1c-1.8-0.7-3.6-1.3-5.4-1.5
	c-2-0.2-4.1,0.2-5.8,1.6C29.6,53.7,28,59.1,28,69c0,3,0.4,5.3,1.3,7c0.9,1.8,2.8,2.9,4.6,2.9c1.8-0.1,3.4-1,4.9-2.3
	c1.5-1.3,2.9-3.1,4.2-5.2c2.2-3.7,4.1-8.7,4.9-14.2c1.6,0.8,3.2,1.6,4.8,2c1.6,0.4,3.4,0.6,4.9-0.7s1.9-3.1,1.9-5.5c0-1.1-0.9-2-2-2
	s-2,0.9-2,2c0,1.9-0.4,2.4-0.5,2.4c0,0-0.3,0.2-1.3-0.1c-1.3-0.4-3.3-1.4-5.4-2.4c0.2-5.1-0.6-10.5-2.8-15.9h13c1.1,0,2-0.9,2-2
	s-0.9-2-2-2H42.5z M38.5,53.5c1.3,0.1,2.8,0.6,4.4,1.3c0.4,0.2,0.7,0.4,1.1,0.5c-0.6,5.5-2.3,10.5-4.5,14c-1.1,1.9-2.3,3.3-3.4,4.3
	c-1.1,0.9-2,1.3-2.4,1.3c-0.4,0-0.5,0-0.9-0.8C32.4,73.3,32,71.6,32,69c0-9.4,1.8-13.5,3.5-14.8C36.4,53.6,37.3,53.4,38.5,53.5z"/>
<path class="st7" d="M59.5,72c-1.2,0-1.7,0.4-2.5,0.8s-1.8,1-2.9,1.7c-2.2,1.4-5,3.4-8,5.5c-6,4.3-12.8,9.4-17.2,12.9
	c-0.9,0.7-1,1.9-0.4,2.8c0.7,0.9,1.9,1,2.8,0.4c4.4-3.4,11.2-8.5,17.1-12.8c3-2.1,5.7-4,7.9-5.4c1.1-0.7,2-1.2,2.6-1.6
	c0.7-0.3,1.3-0.4,0.7-0.4c1.1,0,2-0.9,2-2S60.6,72,59.5,72z"/>
<path class="st8" d="M50.6,110.7l5.3-0.2l-3.9,6.8l-5.5,0.7L50.6,110.7z"/>
<linearGradient id="SVGID_00000153664561105382259860000002579453979007083451_" gradientUnits="userSpaceOnUse" x1="103.4812" y1="378.9215" x2="117.4838" y2="378.9215" gradientTransform="matrix(0.9653 0.5573 0.5573 -0.9653 -254.9514 398.1242)">
	<stop  offset="0" style="stop-color:#1C71D8"/>
	<stop  offset="0.4983" style="stop-color:#62A0EA"/>
	<stop  offset="1" style="stop-color:#1C71D8"/>
</linearGradient>
<path style="fill:url(#SVGID_00000153664561105382259860000002579453979007083451_);" d="M74.3,74.1c-3.7-2.2-8.5-0.9-10.7,2.9
	l-13.4,23.2c-1.8,3.1-1.2,6.8,1.1,9.3l-1.8,3.2l3.9,2.2l1.8-3.2c3.3,0.8,6.8-0.6,8.6-3.7l13.4-23.2C79.3,81.1,78,76.3,74.3,74.1z"/>
<linearGradient id="SVGID_00000124839917073225783710000009719704506542246829_" gradientUnits="userSpaceOnUse" x1="103.4807" y1="421.0725" x2="117.4822" y2="421.0725" gradientTransform="matrix(0.9653 0.5573 0.5573 -0.9653 -254.3941 397.159)">
	<stop  offset="0" style="stop-color:#9A9996"/>
	<stop  offset="0.2857" style="stop-color:#DEDDDA"/>
	<stop  offset="0.4959" style="stop-color:#FFFFFF"/>
	<stop  offset="0.7143" style="stop-color:#DEDDDA"/>
	<stop  offset="1" style="stop-color:#9A9996"/>
</linearGradient>
<path style="fill:url(#SVGID_00000124839917073225783710000009719704506542246829_);" d="M113.8,1.3c-2.7-1.5-6.1-0.6-7.6,2
	l-2.8,4.8L54.7,92.4l-3.3,5.8l13.5,7.8l3.3-5.8L116.9,16l2.8-4.8c1.5-2.7,0.6-6.1-2-7.6L113.8,1.3z"/>
<path class="st11" d="M58.1,86.7l13.5,7.8l-2.2,3.9l-13.5-7.8L58.1,86.7z"/>
<linearGradient id="SVGID_00000061451229113690107720000008218167240737602469_" gradientUnits="userSpaceOnUse" x1="261.5934" y1="467.1394" x2="277.593" y2="467.1394" gradientTransform="matrix(0.866 0.5 0.5 -0.866 -357.1477 282.2324)">
	<stop  offset="0" style="stop-color:#1C71D8"/>
	<stop  offset="0.4983" style="stop-color:#62A0EA"/>
	<stop  offset="1" style="stop-color:#1C71D8"/>
</linearGradient>
<path style="fill:url(#SVGID_00000061451229113690107720000008218167240737602469_);" d="M114.2,1.1c-2.9-1.7-6.8-0.3-8.7,3.1
	L104,6.7l-7,12.1l5.2,3l3.5,2l5.2,3l7-12.1l1.5-2.6c1.9-3.4,1.2-7.4-1.7-9.1L114.2,1.1z"/>
<path class="st11" d="M98.3,16.5l13.9,8l-1.4,2.4l-13.9-8L98.3,16.5z"/>
</svg>
