<?xml version="1.0" encoding="UTF-8" standalone="no"?>
<svg
   height="128px"
   viewBox="0 0 128 128"
   width="128px"
   version="1.1"
   id="svg45187"
   sodipodi:docname="org.nlogozzo.Tagger (symbolic).svg"
   inkscape:version="1.2 (dc2aedaf03, 2022-05-15)"
   inkscape:export-filename="org.gnome.TextEditor.png"
   inkscape:export-xdpi="768"
   inkscape:export-ydpi="768"
   xmlns:inkscape="http://www.inkscape.org/namespaces/inkscape"
   xmlns:sodipodi="http://sodipodi.sourceforge.net/DTD/sodipodi-0.dtd"
   xmlns:xlink="http://www.w3.org/1999/xlink"
   xmlns="http://www.w3.org/2000/svg"
   xmlns:svg="http://www.w3.org/2000/svg">
  <defs
     id="defs45191">
    <linearGradient
       id="f-7"
       gradientTransform="matrix(0.6,0.6,0.707107,-0.707107,368.73892,164.31967)"
       x1="-253.63036"
       x2="-230.06013"
       xlink:href="#e"
       y1="-56.517502"
       y2="-56.517502" />
    <linearGradient
       id="linearGradient48127"
       gradientUnits="userSpaceOnUse">
      <stop
         offset="0"
         stop-color="#fc9a91"
         id="stop45130-5" />
      <stop
         offset="1"
         stop-color="#cb2b31"
         id="stop45132-9" />
    </linearGradient>
    <linearGradient
       id="g-2"
       gradientTransform="matrix(0.6,0.6,0.707107,-0.707107,367.32471,165.73389)"
       x1="-253.63036"
       x2="-230.06013"
       xlink:href="#e"
       y1="-56.517502"
       y2="-56.517502" />
    <linearGradient
       id="h-2"
       gradientTransform="matrix(0.390307,-0.130102,0.130102,-0.390307,70.034397,100.99334)"
       gradientUnits="userSpaceOnUse"
       x1="181.67741"
       x2="143.24614"
       y1="-139.47939"
       y2="-101.0481">
      <stop
         offset="0"
         stop-color="#d0bb8e"
         id="stop45137-8" />
      <stop
         offset="1"
         stop-color="#ffffff"
         id="stop45139-9" />
    </linearGradient>
    <linearGradient
       id="i-7"
       gradientTransform="matrix(0.6,0.6,0.707107,-0.707107,367.32471,165.73388)"
       gradientUnits="userSpaceOnUse"
       x1="-230.06013"
       x2="-253.63036"
       y1="-64.517509"
       y2="-64.517509">
      <stop
         offset="0"
         stop-color="#c0bfbc"
         id="stop45142-3" />
      <stop
         offset="0.223152"
         stop-color="#9a9996"
         id="stop45144-6" />
      <stop
         offset="0.743841"
         stop-color="#d6d5d2"
         id="stop45146-1" />
      <stop
         offset="1"
         stop-color="#f6f5f4"
         id="stop45148-2" />
    </linearGradient>
  </defs>
  <sodipodi:namedview
     id="namedview45189"
     pagecolor="#ffffff"
     bordercolor="#666666"
     borderopacity="1.0"
     inkscape:showpageshadow="2"
     inkscape:pageopacity="0.0"
     inkscape:pagecheckerboard="0"
     inkscape:deskcolor="#d1d1d1"
     showgrid="false"
     inkscape:zoom="3.1877235"
     inkscape:cx="100.69882"
     inkscape:cy="83.445128"
     inkscape:window-width="1280"
     inkscape:window-height="731"
     inkscape:window-x="0"
     inkscape:window-y="0"
     inkscape:window-maximized="1"
     inkscape:current-layer="svg45187" />
  <linearGradient
     id="a"
     gradientTransform="rotate(180,-0.7587084,-86.999999)"
     gradientUnits="userSpaceOnUse"
     x1="27.99999"
     x2="115.999992"
     y1="-276"
     y2="-276">
    <stop
       offset="0"
       stop-color="#c0bfbc"
       id="stop45106" />
    <stop
       offset="0.0454545"
       stop-color="#ffffff"
       id="stop45108" />
    <stop
       offset="0.0909091"
       stop-color="#deddda"
       id="stop45110" />
    <stop
       offset="0.909091"
       stop-color="#deddda"
       id="stop45112" />
    <stop
       offset="0.954545"
       stop-color="#ffffff"
       id="stop45114" />
    <stop
       offset="1"
       stop-color="#c0bfbc"
       id="stop45116" />
  </linearGradient>
  <clipPath
     id="b">
    <path
       d="m 88 94 h 20 v 20 h -20 z m 0 0"
       id="path45119" />
  </clipPath>
  <clipPath
     id="c">
    <path
       d="m 108 94 l -20 20 h -5.714844 v -25.714844 h 25.714844 z m 0 0"
       id="path45122" />
  </clipPath>
  <linearGradient
     id="d"
     gradientTransform="matrix(0,0.178571,0.178571,0,84.428574,42.571447)"
     gradientUnits="userSpaceOnUse"
     x1="344"
     x2="340"
     y1="76"
     y2="72">
    <stop
       offset="0"
       stop-color="#d5d3cf"
       id="stop45125" />
    <stop
       offset="1"
       stop-color="#ffffff"
       id="stop45127" />
  </linearGradient>
  <linearGradient
     id="e"
     gradientUnits="userSpaceOnUse">
    <stop
       offset="0"
       stop-color="#fc9a91"
       id="stop45130" />
    <stop
       offset="1"
       stop-color="#cb2b31"
       id="stop45132" />
  </linearGradient>
  <linearGradient
     id="f"
     gradientTransform="matrix(0.6,0.6,0.707107,-0.707107,158.22274,128.47421)"
     x1="-253.630356"
     x2="-230.060135"
     xlink:href="#e"
     y1="-56.517502"
     y2="-56.517502" />
  <linearGradient
     id="g"
     gradientTransform="matrix(0.6,0.6,0.707107,-0.707107,156.80853,129.88843)"
     x1="-253.630356"
     x2="-230.060135"
     xlink:href="#e"
     y1="-56.517502"
     y2="-56.517502" />
  <linearGradient
     id="h"
     gradientTransform="matrix(0.390307,-0.130102,0.130102,-0.390307,-140.48179,65.147882)"
     gradientUnits="userSpaceOnUse"
     x1="181.677414"
     x2="143.24614"
     y1="-139.479385"
     y2="-101.048103">
    <stop
       offset="0"
       stop-color="#d0bb8e"
       id="stop45137" />
    <stop
       offset="1"
       stop-color="#ffffff"
       id="stop45139" />
  </linearGradient>
  <linearGradient
     id="i"
     gradientTransform="matrix(0.6,0.6,0.707107,-0.707107,156.80853,129.88842)"
     gradientUnits="userSpaceOnUse"
     x1="-230.060135"
     x2="-253.630356"
     y1="-64.517509"
     y2="-64.517509">
    <stop
       offset="0"
       stop-color="#c0bfbc"
       id="stop45142" />
    <stop
       offset="0.223152"
       stop-color="#9a9996"
       id="stop45144" />
    <stop
       offset="0.743841"
       stop-color="#d6d5d2"
       id="stop45146" />
    <stop
       offset="1"
       stop-color="#f6f5f4"
       id="stop45148" />
  </linearGradient>
  <g
     id="g3455"
     transform="matrix(1.0281124,0,0,1.0281124,-1.7991968,0)">
    <path
       d="m 56.910307,54.735107 -0.02238,20.815109 c -1.284999,-0.620404 -2.72512,-0.963781 -4.231665,-0.963878 -5.450231,-5.7e-5 -9.925659,4.47537 -9.925669,9.925657 1e-5,5.45024 4.475428,9.92564 9.925669,9.92564 5.450269,-1e-5 9.925659,-4.4754 9.925659,-9.925685 V 60.406779 l 2.835931,-1.2e-5 14.135183,0.0098 0.02238,15.13221 c -1.284981,-0.620389 -2.72513,-0.963745 -4.231666,-0.963879 -5.450241,-1.7e-5 -9.925668,4.475369 -9.925678,9.925657 1e-5,5.45025 4.4754,9.92571 9.925688,9.92565 5.45025,3e-5 9.92563,-4.47537 9.925649,-9.925657 l -9.48e-4,-0.01225 -0.05528,-29.754871 -19.795922,-0.0098 c -8.507803,-4.2e-5 -8.507803,-4.2e-5 -8.507803,-4.2e-5 z m -4.253854,25.523142 c 2.381727,-1.6e-5 4.253854,1.872186 4.253863,4.253842 -9e-6,2.381773 -1.872136,4.253913 -4.253863,4.253893 -2.381699,-2e-5 -4.253883,-1.87211 -4.253845,-4.253881 0,-2.381692 1.872146,-4.253827 4.253845,-4.253854 z m 22.687268,-1.4e-5 c 2.381698,1.7e-5 4.253816,1.872175 4.253873,4.253882 -5.7e-5,2.381717 -1.872156,4.253867 -4.25393,4.253867 -2.38167,0 -4.253807,-1.87217 -4.253835,-4.253867 1.9e-5,-2.381689 1.872146,-4.253827 4.253892,-4.253882 z m 0,0"
       fill="#2e3436"
       id="path3151"
       style="fill:none;fill-opacity:1;stroke:#000000;stroke-width:3.5;stroke-linecap:round;stroke-linejoin:round;stroke-dasharray:none;stroke-opacity:1;paint-order:markers fill stroke" />
    <circle
       style="fill:none;fill-opacity:1;stroke:#000000;stroke-width:6;stroke-dasharray:none;stroke-opacity:1"
       id="path1693"
       r="11.572474"
       cy="14.572474"
       cx="64" />
    <path
       style="fill:none;stroke:#000000;stroke-width:9;stroke-linecap:butt;stroke-linejoin:miter;stroke-dasharray:none;stroke-opacity:1"
       d="M 45.828995,29.17122 H 82.171036 L 95.558265,45.490412 V 120 H 32.441735 V 45.490412 Z"
       id="path3432"
       sodipodi:nodetypes="ccccccc" />
  </g>
</svg>
