<?xml version="1.0" encoding="UTF-8" standalone="no"?>
<svg
   height="128px"
   viewBox="0 0 128 128"
   width="128px"
   version="1.1"
   id="svg96"
   sodipodi:docname="org.nickvision.tagger-devel.svg"
   inkscape:version="1.2 (dc2aedaf03, 2022-05-15)"
   xmlns:inkscape="http://www.inkscape.org/namespaces/inkscape"
   xmlns:sodipodi="http://sodipodi.sourceforge.net/DTD/sodipodi-0.dtd"
   xmlns="http://www.w3.org/2000/svg"
   xmlns:svg="http://www.w3.org/2000/svg">
  <defs
     id="defs100" />
  <sodipodi:namedview
     id="namedview98"
     pagecolor="#ffffff"
     bordercolor="#666666"
     borderopacity="1.0"
     inkscape:showpageshadow="2"
     inkscape:pageopacity="0.0"
     inkscape:pagecheckerboard="0"
     inkscape:deskcolor="#d1d1d1"
     showgrid="false"
     inkscape:zoom="4.0532242"
     inkscape:cx="20.970959"
     inkscape:cy="70.314393"
     inkscape:window-width="1280"
     inkscape:window-height="731"
     inkscape:window-x="0"
     inkscape:window-y="0"
     inkscape:window-maximized="1"
     inkscape:current-layer="svg96" />
  <linearGradient
     id="a"
     gradientTransform="matrix(0.192351 0 0 0.25 22.005247 57.000046)"
     gradientUnits="userSpaceOnUse"
     x1="10.276156"
     x2="426.276215"
     y1="259.999878"
     y2="259.999878">
    <stop
       offset="0"
       stop-color="#3d3846"
       id="stop2" />
    <stop
       offset="0.0502156"
       stop-color="#5e5c64"
       id="stop4" />
    <stop
       offset="0.100204"
       stop-color="#3d3846"
       id="stop6" />
    <stop
       offset="0.900023"
       stop-color="#3d3846"
       id="stop8" />
    <stop
       offset="0.950011"
       stop-color="#5e5c64"
       id="stop10" />
    <stop
       offset="1"
       stop-color="#3d3846"
       id="stop12" />
  </linearGradient>
  <linearGradient
     id="b"
     gradientUnits="userSpaceOnUse"
     x1="64.000061"
     x2="64.000061"
     y1="4.002609"
     y2="20.021682">
    <stop
       offset="0"
       stop-color="#4d4d4d"
       stop-opacity="0.301961"
       id="stop15" />
    <stop
       offset="0.2"
       stop-color="#ffffff"
       stop-opacity="0.34902"
       id="stop17" />
    <stop
       offset="0.5"
       stop-color="#ffffff"
       stop-opacity="0.45098"
       id="stop19" />
    <stop
       offset="0.8"
       stop-color="#ffffff"
       stop-opacity="0.352941"
       id="stop21" />
    <stop
       offset="1"
       stop-opacity="0.301961"
       id="stop23" />
  </linearGradient>
  <clipPath
     id="c">
    <rect
       height="128"
       width="128"
       id="rect26" />
  </clipPath>
  <clipPath
     id="d">
    <rect
       height="128"
       width="128"
       id="rect29" />
  </clipPath>
  <filter
     id="e"
     height="1"
     width="1"
     x="0"
     y="0">
    <feColorMatrix
       in="SourceGraphic"
       type="matrix"
       values="0 0 0 0 1 0 0 0 0 1 0 0 0 0 1 0 0 0 1 0"
       id="feColorMatrix32" />
  </filter>
  <mask
     id="f">
    <g
       clip-path="url(#d)"
       filter="url(#e)"
       id="g53">
      <g
         clip-path="url(#c)"
         id="g51">
        <path
           d="m 50.164062 15.476562 c -1.53125 0 -2.765624 1.234376 -2.765624 2.765626 c 0 0.355468 0.96875 1.691406 1.089843 2 c 0.398438 -1.03125 1.496094 -1.765626 2.675781 -1.765626 h 25.671876 c 1.179687 0 2.277343 0.734376 2.679687 1.765626 c 0.121094 -0.308594 1.085937 -1.644532 1.085937 -2 c 0 -1.53125 -1.234374 -2.765626 -2.765624 -2.765626 z m 0 0"
           fill="#3d3846"
           id="path35" />
        <path
           d="m 32 36 h 64 c 4.417969 0 8 3.582031 8 8 v 68 c 0 4.417969 -3.582031 8 -8 8 h -64 c -4.417969 0 -8 -3.582031 -8 -8 v -68 c 0 -4.417969 3.582031 -8 8 -8 z m 0 0"
           fill="url(#a)"
           id="path37" />
        <path
           d="m 32 8 c -4.417969 0 -8 3.582031 -8 8 v 94 c 0 4.417969 3.582031 8 8 8 h 64 c 4.417969 0 8 -3.582031 8 -8 v -94 c 0 -4.417969 -3.582031 -8 -8 -8 z m 19.164062 8.476562 h 25.671876 c 1.53125 0 2.765624 1.234376 2.765624 2.765626 c 0 1.535156 -1.234374 2.769531 -2.765624 2.769531 h -25.671876 c -1.53125 0 -2.765624 -1.234375 -2.765624 -2.769531 c 0 -1.53125 1.234374 -2.765626 2.765624 -2.765626 z m 0 0"
           fill="#241f31"
           id="path39" />
        <path
           d="m 38.265625 52.386719 v 8.578125 h 42.890625 v -8.578125 z m 0 17.15625 v 8.578125 h 34.226563 v -8.578125 z m 0 17.15625 v 8.578125 h 21.496094 l -0.050781 -8.578125 z m 0 0"
           fill="#77767b"
           id="path41" />
        <path
           d="m 76.867188 69.542969 v 14.023437 c -1.308594 -0.753906 -2.78125 -1.15625 -4.289063 -1.15625 c -4.742187 0 -8.578125 3.835938 -8.578125 8.578125 c 0 4.742188 3.835938 8.578125 8.578125 8.578125 s 8.578125 -3.835937 8.578125 -8.578125 v -12.867187 h 8.578125 v -8.578125 z m 0 0"
           fill="#77767b"
           id="path43" />
        <path
           d="m 38.265625 51.398438 v 8.578124 h 42.890625 v -8.578124 z m 0 17.15625 v 8.578124 h 34.226563 v -8.578124 z m 0 17.15625 v 8.578124 h 21.496094 l -0.050781 -8.578124 z m 0 0"
           fill="#c0bfbc"
           id="path45" />
        <path
           d="m 76.867188 68.554688 v 14.023437 c -1.308594 -0.753906 -2.78125 -1.15625 -4.289063 -1.15625 c -4.742187 0 -8.578125 3.835937 -8.578125 8.578125 c 0 4.738281 3.835938 8.578125 8.578125 8.578125 s 8.578125 -3.839844 8.578125 -8.578125 v -12.867188 h 8.578125 v -8.578124 z m 0 0"
           fill="#c0bfbc"
           id="path47" />
        <path
           d="m 53.894531 4.003906 h 20.210938 c 0.921875 0 1.671875 0.746094 1.671875 1.671875 v 12.675781 c 0 0.921876 -0.75 1.671876 -1.671875 1.671876 h -20.210938 c -0.921875 0 -1.671875 -0.75 -1.671875 -1.671876 v -12.675781 c 0 -0.925781 0.75 -1.671875 1.671875 -1.671875 z m 0 0"
           fill="url(#b)"
           id="path49" />
      </g>
    </g>
  </mask>
  <mask
     id="g">
    <g
       filter="url(#e)"
       id="g58">
      <rect
         fill-opacity="0.8"
         height="128"
         width="128"
         id="rect56" />
    </g>
  </mask>
  <linearGradient
     id="h"
     gradientTransform="matrix(0 0.37 -0.98462 0 295.38501 -30.360001)"
     gradientUnits="userSpaceOnUse"
     x1="300"
     x2="428"
     y1="235"
     y2="235">
    <stop
       offset="0"
       stop-color="#f9f06b"
       id="stop61" />
    <stop
       offset="1"
       stop-color="#f5c211"
       id="stop63" />
  </linearGradient>
  <clipPath
     id="i">
    <rect
       height="128"
       width="128"
       id="rect66" />
  </clipPath>
  <clipPath
     id="j">
    <rect
       height="128"
       width="128"
       id="rect69" />
  </clipPath>
  <path
     d="m 50.164062 15.476562 c -1.53125 0 -2.765624 1.234376 -2.765624 2.765626 c 0 0.355468 0.96875 1.691406 1.089843 2 c 0.398438 -1.03125 1.496094 -1.765626 2.675781 -1.765626 h 25.671876 c 1.179687 0 2.277343 0.734376 2.679687 1.765626 c 0.121094 -0.308594 1.085937 -1.644532 1.085937 -2 c 0 -1.53125 -1.234374 -2.765626 -2.765624 -2.765626 z m 0 0"
     fill="#3d3846"
     id="path72" />
  <path
     d="m 32 36 h 64 c 4.417969 0 8 3.582031 8 8 v 68 c 0 4.417969 -3.582031 8 -8 8 h -64 c -4.417969 0 -8 -3.582031 -8 -8 v -68 c 0 -4.417969 3.582031 -8 8 -8 z m 0 0"
     fill="url(#a)"
     id="path74" />
  <path
     d="m 32 8 c -4.417969 0 -8 3.582031 -8 8 v 94 c 0 4.417969 3.582031 8 8 8 h 64 c 4.417969 0 8 -3.582031 8 -8 v -94 c 0 -4.417969 -3.582031 -8 -8 -8 z m 19.164062 8.476562 h 25.671876 c 1.53125 0 2.765624 1.234376 2.765624 2.765626 c 0 1.535156 -1.234374 2.769531 -2.765624 2.769531 h -25.671876 c -1.53125 0 -2.765624 -1.234375 -2.765624 -2.769531 c 0 -1.53125 1.234374 -2.765626 2.765624 -2.765626 z m 0 0"
     fill="#241f31"
     id="path76" />
  <path
     d="m 38.265625 52.386719 v 8.578125 h 42.890625 v -8.578125 z m 0 17.15625 v 8.578125 h 34.226563 v -8.578125 z m 0 17.15625 v 8.578125 h 21.496094 l -0.050781 -8.578125 z m 0 0"
     fill="#77767b"
     id="path78"
     style="fill:#9a9996;fill-opacity:1" />
  <path
     d="m 76.867188 69.542969 v 14.023437 c -1.308594 -0.753906 -2.78125 -1.15625 -4.289063 -1.15625 c -4.742187 0 -8.578125 3.835938 -8.578125 8.578125 c 0 4.742188 3.835938 8.578125 8.578125 8.578125 s 8.578125 -3.835937 8.578125 -8.578125 v -12.867187 h 8.578125 v -8.578125 z m 0 0"
     fill="#77767b"
     id="path80"
     style="fill:#9a9996;fill-opacity:1" />
  <path
     d="m 38.265625 51.398438 v 8.578124 h 42.890625 v -8.578124 z m 0 17.15625 v 8.578124 h 34.226563 v -8.578124 z m 0 17.15625 v 8.578124 h 21.496094 l -0.050781 -8.578124 z m 0 0"
     fill="#c0bfbc"
     id="path82"
     style="fill:#ffffff;fill-opacity:1" />
  <path
     d="m 76.867188 68.554688 v 14.023437 c -1.308594 -0.753906 -2.78125 -1.15625 -4.289063 -1.15625 c -4.742187 0 -8.578125 3.835937 -8.578125 8.578125 c 0 4.738281 3.835938 8.578125 8.578125 8.578125 s 8.578125 -3.839844 8.578125 -8.578125 v -12.867188 h 8.578125 v -8.578124 z m 0 0"
     fill="#c0bfbc"
     id="path84"
     style="fill:#ffffff;fill-opacity:1" />
  <path
     d="m 53.894531 4.003906 h 20.210938 c 0.921875 0 1.671875 0.746094 1.671875 1.671875 v 12.675781 c 0 0.921876 -0.75 1.671876 -1.671875 1.671876 h -20.210938 c -0.921875 0 -1.671875 -0.75 -1.671875 -1.671876 v -12.675781 c 0 -0.925781 0.75 -1.671875 1.671875 -1.671875 z m 0 0"
     fill="url(#b)"
     id="path86" />
  <g
     clip-path="url(#j)"
     mask="url(#f)"
     id="g94">
    <g
       clip-path="url(#i)"
       mask="url(#g)"
       id="g92">
      <path
         d="m 128 80.640625 v 47.359375 h -128 v -47.359375 z m 0 0"
         fill="url(#h)"
         id="path88" />
      <path
         d="m 13.308594 80.640625 l 47.355468 47.359375 h 21.214844 l -47.359375 -47.359375 z m 42.421875 0 l 47.363281 47.359375 h 21.214844 l -47.363282 -47.359375 z m 42.429687 0 l 29.839844 29.839844 v -21.210938 l -8.628906 -8.628906 z m -98.160156 7.90625 v 21.214844 l 18.238281 18.238281 h 21.214844 z m 0 0"
         id="path90" />
    </g>
  </g>
</svg>
