<?xml version="1.0" encoding="UTF-8"?>
<svg height="128px" viewBox="0 0 128 128" width="128px" xmlns="http://www.w3.org/2000/svg" xmlns:xlink="http://www.w3.org/1999/xlink">
    <linearGradient id="a" gradientUnits="userSpaceOnUse" x1="61.70374834055" x2="61.70373768022" y1="28.97156889018" y2="115.99971719833">
        <stop offset="0" stop-color="#1a5fb4"/>
        <stop offset="0.243814" stop-color="#3584e4"/>
        <stop offset="0.255942" stop-color="#62a0ea"/>
        <stop offset="0.92" stop-color="#1c71d8"/>
        <stop offset="0.971524" stop-color="#62a0ea"/>
        <stop offset="1" stop-color="#1a5fb4"/>
    </linearGradient>
    <linearGradient id="b" gradientUnits="userSpaceOnUse">
        <stop offset="0.760841" stop-color="#77767b"/>
        <stop offset="0.799343" stop-color="#9a9996"/>
        <stop offset="0.876263" stop-color="#f6f5f4"/>
        <stop offset="0.938584" stop-color="#adacaa"/>
        <stop offset="1" stop-color="#77767b"/>
    </linearGradient>
    <radialGradient id="c" cx="-66.36977745871" cy="26.13031171141" r="18.25530685081" xlink:href="#b"/>
    <linearGradient id="d" gradientTransform="matrix(0 0.435009 -0.671519 0 66.296933 33.564221)" gradientUnits="userSpaceOnUse" x1="-10.557575" x2="189.503159" y1="0.000001" y2="0.000001">
        <stop offset="0" stop-color="#3584e4"/>
        <stop offset="0.2" stop-color="#62a0ea"/>
        <stop offset="0.5" stop-color="#62a0ea"/>
        <stop offset="0.8" stop-color="#62a0ea"/>
        <stop offset="1" stop-color="#3584e4"/>
    </linearGradient>
    <radialGradient id="e" cx="91.197998" cy="65.291901" gradientTransform="matrix(2.890656 0 0 2.890649 -200.168495 -146.418433)" gradientUnits="userSpaceOnUse" r="2.169431">
        <stop offset="0.733816"/>
        <stop offset="0.733816" stop-color="#123e82"/>
    </radialGradient>
    <radialGradient id="f" cx="66.36976654129" cy="26.13031171141" r="18.25530685081" xlink:href="#b"/>
    <linearGradient id="g" gradientUnits="userSpaceOnUse" x1="61.70377762592" x2="70.89009209738" y1="42.31750891826" y2="42.31750891826">
        <stop offset="0.27564"/>
        <stop offset="0.861989" stop-opacity="0"/>
    </linearGradient>
    <clipPath id="h">
        <rect height="128" width="128"/>
    </clipPath>
    <clipPath id="i">
        <rect height="128" width="128"/>
    </clipPath>
    <filter id="j" height="100%" width="100%" x="0%" y="0%">
        <feColorMatrix in="SourceGraphic" type="matrix" values="0 0 0 0 1 0 0 0 0 1 0 0 0 0 1 0 0 0 1 0"/>
    </filter>
    <mask id="k">
        <g clip-path="url(#i)" filter="url(#j)">
            <g clip-path="url(#h)">
                <path d="m 32.585938 51.144531 l 11.121093 -22.171875 h 35.992188 l 11.121093 22.171875 c -29.117187 0 -29.117187 0 -58.234374 0 z m 58.234374 0 v 59.316407 c 0 3.066406 -2.46875 5.539062 -5.539062 5.539062 h -47.152344 c -3.070312 0 -5.542968 -2.472656 -5.542968 -5.539062 v -59.316407 z m 0 0" fill="url(#a)"/>
                <path d="m -66.369707 9.710711 c 9.069103 0 16.421123 7.352019 16.421123 16.421123 c 0 9.065072 -7.35202 16.417092 -16.421123 16.417092" fill="none" stroke="url(#c)" stroke-linecap="round" stroke-linejoin="round" stroke-width="5" transform="matrix(-0.969121 0 0 0.969121 1.976568 1.011017)"/>
                <path d="m 37.179688 51.144531 l 11.121093 -22.171875 h 35.992188 l 11.121093 22.171875 c -29.117187 0 -29.117187 0 -58.234374 0 z m 58.234374 0 v 59.316407 c 0 3.066406 -2.472656 5.539062 -5.539062 5.539062 h -47.15625 c -3.066406 0 -5.539062 -2.472656 -5.539062 -5.539062 v -59.316407 z m 0 0" fill="url(#d)"/>
                <path d="m 59.279683 65.342605 l -0.020153 20.8146 c -1.285797 -0.62073 -2.728792 -0.963341 -4.232248 -0.963341 c -5.449524 0 -9.927645 4.474091 -9.927645 9.923615 c 0 5.449523 4.478121 9.927645 9.927645 9.927645 c 5.449523 0 9.923614 -4.478122 9.923614 -9.927645 v -24.103661 h 2.837622 l 14.135708 0.008061 l 0.020154 15.135326 c -1.285797 -0.62073 -2.724762 -0.967371 -4.232248 -0.967371 c -5.449523 0 -9.923614 4.478121 -9.923614 9.927645 c 0 5.449523 4.474091 9.923614 9.923614 9.923614 c 5.453554 0 9.927645 -4.474091 9.927645 -9.923614 v -0.012092 l -0.05643 -29.75472 l -19.794829 -0.012093 c -8.508835 0 -8.508835 0 -8.508835 0 z m -4.252401 25.522472 c 2.382151 0 4.252401 1.870251 4.252401 4.252402 s -1.87025 4.256432 -4.252401 4.256432 s -4.256433 -1.874281 -4.256433 -4.256432 s 1.874282 -4.252402 4.256433 -4.252402 z m 22.68485 0 c 2.382151 0 4.256432 1.870251 4.256432 4.252402 s -1.874281 4.256432 -4.256432 4.256432 s -4.252402 -1.874281 -4.252402 -4.256432 s 1.870251 -4.252402 4.252402 -4.252402 z m 0 0" fill="#99c1f1" stroke="#1a5fb4" stroke-linecap="round" stroke-linejoin="round" stroke-width="1.74088" transform="matrix(0.969121 0 0 0.969121 1.976568 1.011017)"/>
                <path d="m 70.890625 42.316406 c 0 2.539063 -2.058594 4.59375 -4.59375 4.59375 s -4.59375 -2.054687 -4.59375 -4.59375 c 0 -2.535156 2.058594 -4.59375 4.59375 -4.59375 s 4.59375 2.058594 4.59375 4.59375 z m 0 0" fill="url(#e)"/>
                <path d="m 66.369707 9.710711 c 6.130714 0 11.753558 3.418044 14.575056 8.859506 c 2.82553 5.445493 2.378121 12.007493 -1.152783 17.017668 c -3.534935 5.014207 -9.564881 7.6382 -15.639165 6.811904" fill="none" stroke="url(#f)" stroke-linecap="round" stroke-linejoin="round" stroke-width="5" transform="matrix(0.969121 0 0 0.969121 1.976568 1.011017)"/>
                <path d="m 70.890625 42.316406 c 0 2.539063 -2.058594 4.59375 -4.59375 4.59375 s -4.59375 -2.054687 -4.59375 -4.59375 c 0 -2.535156 2.058594 -4.59375 4.59375 -4.59375 s 4.59375 2.058594 4.59375 4.59375 z m 0 0" fill="url(#g)"/>
            </g>
        </g>
    </mask>
    <mask id="l">
        <g filter="url(#j)">
            <rect fill-opacity="0.8" height="128" width="128"/>
        </g>
    </mask>
    <linearGradient id="m" gradientTransform="matrix(0 0.37 -0.98462 0 295.38501 -30.360001)" gradientUnits="userSpaceOnUse" x1="300" x2="428" y1="235" y2="235">
        <stop offset="0" stop-color="#f9f06b"/>
        <stop offset="1" stop-color="#f5c211"/>
    </linearGradient>
    <clipPath id="n">
        <rect height="128" width="128"/>
    </clipPath>
    <clipPath id="o">
        <rect height="128" width="128"/>
    </clipPath>
    <path d="m 32.585938 51.144531 l 11.121093 -22.171875 h 35.992188 l 11.121093 22.171875 c -29.117187 0 -29.117187 0 -58.234374 0 z m 58.234374 0 v 59.316407 c 0 3.066406 -2.46875 5.539062 -5.539062 5.539062 h -47.152344 c -3.070312 0 -5.542968 -2.472656 -5.542968 -5.539062 v -59.316407 z m 0 0" fill="url(#a)"/>
    <path d="m -66.369707 9.710711 c 9.069103 0 16.421123 7.352019 16.421123 16.421123 c 0 9.065072 -7.35202 16.417092 -16.421123 16.417092" fill="none" stroke="url(#c)" stroke-linecap="round" stroke-linejoin="round" stroke-width="5" transform="matrix(-0.969121 0 0 0.969121 1.976568 1.011017)"/>
    <path d="m 37.179688 51.144531 l 11.121093 -22.171875 h 35.992188 l 11.121093 22.171875 c -29.117187 0 -29.117187 0 -58.234374 0 z m 58.234374 0 v 59.316407 c 0 3.066406 -2.472656 5.539062 -5.539062 5.539062 h -47.15625 c -3.066406 0 -5.539062 -2.472656 -5.539062 -5.539062 v -59.316407 z m 0 0" fill="url(#d)"/>
    <path d="m 59.42575366864 64.33590770021 l -0.01953069551 20.1718659666 c -1.24609287444 -0.60156247833 -2.64452963183 -0.93359399326 -4.10156041401 -0.93359399326 c -5.2812481484 0 -9.62108925004 4.33593554401 -9.62108925004 9.61718369242 c 0 5.28124717928 4.33984110164 9.62108925004 9.62108925004 9.62108925004 c 5.28124717928 0 9.61718272329 -4.33984207076 9.61718272329 -9.62108925004 v -23.35936405198 h 2.74999907026 l 13.69921147267 0.00781208438 l 0.01953166463 14.66796226845 c -1.24609287444 -0.60156247833 -2.6406240742 -0.93749955089 -4.10156041401 -0.93749955089 c -5.28124717928 0 -9.61718272329 4.33984110164 -9.61718272329 9.62108925005 c 0 5.28124717928 4.33593554401 9.61718272329 9.61718272329 9.61718272329 c 5.28515370603 0 9.62108925004 -4.33593554401 9.62108925004 -9.61718272329 v -0.01171861113 l -0.05468749803 -28.83592400112 l -19.18358447531 -0.01171958025 c -8.24609068403 0 -8.24609068403 0 -8.24609068403 0 z m -4.12109110952 24.73436358711 c 2.30859255927 0 4.12109110952 1.81249951937 4.12109110952 4.12109207864 s -1.81249855025 4.12499763627 -4.12109110952 4.12499763627 s -4.12499860539 -1.816405077 -4.12499860539 -4.12499763627 s 1.81640604612 -4.12109207864 4.12499860539 -4.12109207864 z m 21.98436451685 0 c 2.30859255927 0 4.12499763627 1.81249951937 4.12499763627 4.12109207864 s -1.816405077 4.12499763627 -4.12499763627 4.12499763627 s -4.12109207864 -1.816405077 -4.12109207864 -4.12499763627 s 1.81249951937 -4.12109207864 4.12109207864 -4.12109207864 z m 0 0" fill="#99c1f1" stroke="#1a5fb4" stroke-linecap="round" stroke-linejoin="round" stroke-width="1.68712336648"/>
    <path d="m 70.890625 42.316406 c 0 2.539063 -2.058594 4.59375 -4.59375 4.59375 s -4.59375 -2.054687 -4.59375 -4.59375 c 0 -2.535156 2.058594 -4.59375 4.59375 -4.59375 s 4.59375 2.058594 4.59375 4.59375 z m 0 0" fill="url(#e)"/>
    <path d="m 66.369707 9.710711 c 6.130714 0 11.753558 3.418044 14.575056 8.859506 c 2.82553 5.445493 2.378121 12.007493 -1.152783 17.017668 c -3.534935 5.014207 -9.564881 7.6382 -15.639165 6.811904" fill="none" stroke="url(#f)" stroke-linecap="round" stroke-linejoin="round" stroke-width="5" transform="matrix(0.969121 0 0 0.969121 1.976568 1.011017)"/>
    <path d="m 70.890625 42.316406 c 0 2.539063 -2.058594 4.59375 -4.59375 4.59375 s -4.59375 -2.054687 -4.59375 -4.59375 c 0 -2.535156 2.058594 -4.59375 4.59375 -4.59375 s 4.59375 2.058594 4.59375 4.59375 z m 0 0" fill="url(#g)"/>
    <g clip-path="url(#o)" mask="url(#k)">
        <g clip-path="url(#n)" mask="url(#l)">
            <path d="m 128 80.640625 v 47.359375 h -128 v -47.359375 z m 0 0" fill="url(#m)"/>
            <path d="m 13.308594 80.640625 l 47.355468 47.359375 h 21.214844 l -47.359375 -47.359375 z m 42.421875 0 l 47.363281 47.359375 h 21.214844 l -47.363282 -47.359375 z m 42.429687 0 l 29.839844 29.839844 v -21.210938 l -8.628906 -8.628906 z m -98.160156 7.90625 v 21.214844 l 18.238281 18.238281 h 21.214844 z m 0 0"/>
        </g>
    </g>
</svg>
