<?xml version="1.0" encoding="UTF-8"?>
<svg height="128px" viewBox="0 0 128 128" width="128px" xmlns="http://www.w3.org/2000/svg" xmlns:xlink="http://www.w3.org/1999/xlink">
    <linearGradient id="a" gradientTransform="matrix(0.192351 0 0 0.25 22.005253 57.000046)" gradientUnits="userSpaceOnUse" x1="10.276156" x2="426.276215" y1="259.999878" y2="259.999878">
        <stop offset="0" stop-color="#3d3846"/>
        <stop offset="0.0502156" stop-color="#5e5c64"/>
        <stop offset="0.100204" stop-color="#3d3846"/>
        <stop offset="0.900023" stop-color="#3d3846"/>
        <stop offset="0.950011" stop-color="#5e5c64"/>
        <stop offset="1" stop-color="#3d3846"/>
    </linearGradient>
    <linearGradient id="b" gradientUnits="userSpaceOnUse" x1="64.000122" x2="64.000122" y1="4.002609" y2="20.021682">
        <stop offset="0" stop-color="#4d4d4d" stop-opacity="0.301961"/>
        <stop offset="0.2" stop-color="#ffffff" stop-opacity="0.34902"/>
        <stop offset="0.5" stop-color="#ffffff" stop-opacity="0.45098"/>
        <stop offset="0.8" stop-color="#ffffff" stop-opacity="0.352941"/>
        <stop offset="1" stop-opacity="0.301961"/>
    </linearGradient>
    <path d="m 50.164062 15.476562 c -1.53125 0 -2.765624 1.234376 -2.765624 2.765626 c 0 0.355468 0.96875 1.691406 1.089843 2 c 0.398438 -1.03125 1.496094 -1.765626 2.675781 -1.765626 h 25.671876 c 1.179687 0 2.277343 0.734376 2.679687 1.765626 c 0.121094 -0.308594 1.085937 -1.644532 1.085937 -2 c 0 -1.53125 -1.234374 -2.765626 -2.765624 -2.765626 z m 0 0" fill="#3d3846"/>
    <path d="m 32 36 h 64 c 4.417969 0 8 3.582031 8 8 v 68 c 0 4.417969 -3.582031 8 -8 8 h -64 c -4.417969 0 -8 -3.582031 -8 -8 v -68 c 0 -4.417969 3.582031 -8 8 -8 z m 0 0" fill="url(#a)"/>
    <path d="m 32 8 c -4.417969 0 -8 3.582031 -8 8 v 94 c 0 4.417969 3.582031 8 8 8 h 64 c 4.417969 0 8 -3.582031 8 -8 v -94 c 0 -4.417969 -3.582031 -8 -8 -8 z m 19.164062 8.476562 h 25.671876 c 1.53125 0 2.765624 1.234376 2.765624 2.765626 c 0 1.535156 -1.234374 2.769531 -2.765624 2.769531 h -25.671876 c -1.53125 0 -2.765624 -1.234375 -2.765624 -2.769531 c 0 -1.53125 1.234374 -2.765626 2.765624 -2.765626 z m 0 0" fill="#241f31"/>
    <path d="m 38.265625 52.386719 v 8.578125 h 42.890625 v -8.578125 z m 0 17.15625 v 8.578125 h 34.226563 v -8.578125 z m 0 17.15625 v 8.578125 h 21.496094 l -0.050781 -8.578125 z m 0 0" fill="#9a9996"/>
    <path d="m 76.867188 69.542969 v 14.023437 c -1.308594 -0.753906 -2.78125 -1.15625 -4.289063 -1.15625 c -4.742187 0 -8.578125 3.835938 -8.578125 8.578125 c 0 4.742188 3.835938 8.578125 8.578125 8.578125 s 8.578125 -3.835937 8.578125 -8.578125 v -12.867187 h 8.578125 v -8.578125 z m 0 0" fill="#9a9996"/>
    <path d="m 38.265625 51.398438 v 8.578124 h 42.890625 v -8.578124 z m 0 17.15625 v 8.578124 h 34.226563 v -8.578124 z m 0 17.15625 v 8.578124 h 21.496094 l -0.050781 -8.578124 z m 0 0" fill="#ffffff"/>
    <path d="m 76.867188 68.554688 v 14.023437 c -1.308594 -0.753906 -2.78125 -1.15625 -4.289063 -1.15625 c -4.742187 0 -8.578125 3.835937 -8.578125 8.578125 c 0 4.738281 3.835938 8.578125 8.578125 8.578125 s 8.578125 -3.839844 8.578125 -8.578125 v -12.867188 h 8.578125 v -8.578124 z m 0 0" fill="#ffffff"/>
    <path d="m 53.894531 4.003906 h 20.210938 c 0.921875 0 1.671875 0.746094 1.671875 1.671875 v 12.675781 c 0 0.921876 -0.75 1.671876 -1.671875 1.671876 h -20.210938 c -0.921875 0 -1.671875 -0.75 -1.671875 -1.671876 v -12.675781 c 0 -0.925781 0.75 -1.671875 1.671875 -1.671875 z m 0 0" fill="url(#b)"/>
</svg>
