<?xml version="1.0" encoding="UTF-8"?>
<svg height="16px" viewBox="0 0 16 16" width="16px" xmlns="http://www.w3.org/2000/svg">
    <g fill="#241f31">
        <path d="m 3 7 v 5.269531 c -0.304688 -0.175781 -0.648438 -0.269531 -1 -0.269531 c -1.105469 0 -2 0.894531 -2 2 s 0.894531 2 2 2 s 2 -0.894531 2 -2 v -5 h 4 v -2 z m 0 0"/>
        <path d="m 6 0 c -1.644531 0 -3 1.355469 -3 3 v 3 h 2 v -3 c 0 -0.570312 0.429688 -1 1 -1 h 5 c 0.570312 0 1 0.429688 1 1 v 10 c 0 0.570312 -0.429688 1 -1 1 h -5 c -0.570312 0 -1 -0.429688 -1 -1 v 1 c 0 0.589844 -0.175781 1.140625 -0.472656 1.605469 c 0.4375 0.25 0.9375 0.394531 1.472656 0.394531 h 5 c 1.644531 0 3 -1.355469 3 -3 v -10 c 0 -1.644531 -1.355469 -3 -3 -3 z m 0 0"/>
        <g fill-opacity="0.501961">
            <path d="m 6 3 h 4 v 1 h -4 z m 0 0"/>
            <path d="m 6 5 h 5 v 1 h -5 z m 0 0"/>
            <path d="m 6 10 h 4 v 1 h -4 z m 0 0"/>
            <path d="m 6 12 h 5 v 1 h -5 z m 0 0"/>
        </g>
    </g>
</svg>
