<?xml version="1.0" encoding="UTF-8"?>
<svg height="128px" viewBox="0 0 128 128" width="128px" xmlns="http://www.w3.org/2000/svg" xmlns:xlink="http://www.w3.org/1999/xlink">
    <linearGradient id="a" gradientTransform="matrix(0.984808 0.173648 -0.173648 0.984808 15.999999 -172)" gradientUnits="userSpaceOnUse" x1="128.219681" x2="125.685921" y1="243.433182" y2="181.426102">
        <stop offset="0" stop-color="#3584e4"/>
        <stop offset="1" stop-color="#99c1f1"/>
    </linearGradient>
    <radialGradient id="b" cx="31.999996" cy="100.000016" gradientUnits="userSpaceOnUse" r="24">
        <stop offset="0" stop-color="#ffa348"/>
        <stop offset="1" stop-color="#e66100"/>
    </radialGradient>
    <clipPath id="c">
        <rect height="128" width="128"/>
    </clipPath>
    <clipPath id="d">
        <rect height="128" width="128"/>
    </clipPath>
    <filter id="e" height="100%" width="100%" x="0%" y="0%">
        <feColorMatrix in="SourceGraphic" type="matrix" values="0 0 0 0 1 0 0 0 0 1 0 0 0 0 1 0 0 0 1 0"/>
    </filter>
    <mask id="f">
        <g clip-path="url(#d)" filter="url(#e)">
            <g clip-path="url(#c)">
                <path d="m 57.457031 6.929688 l 55.148438 9.722656 c 4.351562 0.765625 7.253906 4.917968 6.488281 9.265625 l -15.28125 86.664062 c -0.765625 4.351563 -4.917969 7.257813 -9.265625 6.488281 l -55.152344 -9.722656 c -4.351562 -0.765625 -7.253906 -4.917968 -6.488281 -9.265625 l 15.28125 -86.664062 c 0.765625 -4.351563 4.917969 -7.257813 9.269531 -6.488281 z m 0 0" fill="url(#a)"/>
                <path d="m 117.808594 19.992188 c 0.40625 1.226562 0.527344 2.5625 0.285156 3.925781 l -15.28125 86.664062 c -0.769531 4.363281 -4.902344 7.261719 -9.269531 6.488281 l -55.148438 -9.722656 c -2.203125 -0.390625 -4.03125 -1.636718 -5.203125 -3.339844 c 0.898438 2.691407 3.203125 4.8125 6.203125 5.339844 l 55.152344 9.722656 c 4.363281 0.773438 8.496094 -2.125 9.265625 -6.488281 l 15.28125 -86.664062 c 0.378906 -2.15625 -0.140625 -4.257813 -1.285156 -5.925781 z m 0 0" fill-opacity="0.25098"/>
                <path d="m 36 12 h 56 c 4.417969 0 8 3.582031 8 8 v 88 c 0 4.417969 -3.582031 8 -8 8 h -56 c -4.417969 0 -8 -3.582031 -8 -8 v -88 c 0 -4.417969 3.582031 -8 8 -8 z m 0 0" fill="#ffffff"/>
                <path d="m 28 106 v 2 c 0 4.433594 3.566406 8 8 8 h 56 c 4.433594 0 8 -3.566406 8 -8 v -2 c 0 4.433594 -3.566406 8 -8 8 h -56 c -4.433594 0 -8 -3.566406 -8 -8 z m 0 0" fill-opacity="0.14902"/>
                <path d="m 52 22 h 40 v 6 h -40 z m 0 0" fill="#5e5c64" fill-opacity="0.2"/>
                <path d="m 52 32 h 32 v 4 h -32 z m 0 0" fill="#5e5c64" fill-opacity="0.2"/>
                <path d="m 52 64 h 32 v 4 h -32 z m 0 0" fill="#5e5c64" fill-opacity="0.2"/>
                <path d="m 52 72 h 24 v 4 h -24 z m 0 0" fill="#5e5c64" fill-opacity="0.2"/>
                <path d="m 52 80 h 32 v 4 h -32 z m 0 0" fill="#5e5c64" fill-opacity="0.2"/>
                <path d="m 52 88 h 28 v 4 h -28 z m 0 0" fill="#5e5c64" fill-opacity="0.2"/>
                <path d="m 52 96 h 32 v 4 h -32 z m 0 0" fill="#5e5c64" fill-opacity="0.2"/>
                <path d="m 40 44 h 28 c 2.210938 0 4 1.789062 4 4 v 4 c 0 2.210938 -1.789062 4 -4 4 h -28 c -2.210938 0 -4 -1.789062 -4 -4 v -4 c 0 -2.210938 1.789062 -4 4 -4 z m 0 0" fill="#ff7800"/>
                <path d="m 36 50 v 2 c 0 2.214844 1.785156 4 4 4 h 28 c 2.214844 0 4 -1.785156 4 -4 v -2 c 0 2.214844 -1.785156 4 -4 4 h -28 c -2.214844 0 -4 -1.785156 -4 -4 z m 0 0" fill="#e66100"/>
                <path d="m 40 44 c 2.210938 0 4 1.789062 4 4 v 52 c 0 2.210938 -1.789062 4 -4 4 s -4 -1.789062 -4 -4 v -52 c 0 -2.210938 1.789062 -4 4 -4 z m 0 0" fill="#ff7800"/>
                <path d="m 40 44 c -2.214844 0 -4 1.785156 -4 4 v 2 c 0 -2.214844 1.785156 -4 4 -4 h 28 c 2.214844 0 4 1.785156 4 4 v -2 c 0 -2.214844 -1.785156 -4 -4 -4 z m 0 0" fill="#ffffff" fill-opacity="0.2"/>
                <path d="m 44 104 c 0 8.835938 -7.164062 16 -16 16 s -16 -7.164062 -16 -16 s 7.164062 -16 16 -16 s 16 7.164062 16 16 z m 0 0" fill="url(#b)"/>
                <path d="m 28 88 c -8.835938 0 -16 7.164062 -16 16 c 0.011719 0.335938 0.035156 0.667969 0.070312 1 c 0.527344 -8.417969 7.496094 -14.980469 15.929688 -15 c 8.347656 0 15.292969 6.425781 15.949219 14.75 c 0.019531 -0.25 0.039062 -0.5 0.050781 -0.75 c 0 -8.835938 -7.164062 -16 -16 -16 z m 0 0" fill="#ffffff" fill-opacity="0.2"/>
                <path d="m 28 120 c -8.835938 0 -16 -7.164062 -16 -16 c 0.011719 -0.335938 0.035156 -0.667969 0.070312 -1 c 0.527344 8.417969 7.496094 14.980469 15.929688 15 c 8.347656 0 15.292969 -6.425781 15.949219 -14.75 c 0.019531 0.25 0.039062 0.5 0.050781 0.75 c 0 8.835938 -7.164062 16 -16 16 z m 0 0" fill-opacity="0.2"/>
            </g>
        </g>
    </mask>
    <mask id="g">
        <g filter="url(#e)">
            <rect fill-opacity="0.8" height="128" width="128"/>
        </g>
    </mask>
    <linearGradient id="h" gradientTransform="matrix(0 0.37 -0.98462 0 295.38501 -30.360001)" gradientUnits="userSpaceOnUse" x1="300" x2="428" y1="235" y2="235">
        <stop offset="0" stop-color="#f9f06b"/>
        <stop offset="1" stop-color="#f5c211"/>
    </linearGradient>
    <clipPath id="i">
        <rect height="128" width="128"/>
    </clipPath>
    <clipPath id="j">
        <rect height="128" width="128"/>
    </clipPath>
    <path d="m 57.457031 6.929688 l 55.148438 9.722656 c 4.351562 0.765625 7.253906 4.917968 6.488281 9.265625 l -15.28125 86.664062 c -0.765625 4.351563 -4.917969 7.257813 -9.265625 6.488281 l -55.152344 -9.722656 c -4.351562 -0.765625 -7.253906 -4.917968 -6.488281 -9.265625 l 15.28125 -86.664062 c 0.765625 -4.351563 4.917969 -7.257813 9.269531 -6.488281 z m 0 0" fill="url(#a)"/>
    <path d="m 117.808594 19.992188 c 0.40625 1.226562 0.527344 2.5625 0.285156 3.925781 l -15.28125 86.664062 c -0.769531 4.363281 -4.902344 7.261719 -9.269531 6.488281 l -55.148438 -9.722656 c -2.203125 -0.390625 -4.03125 -1.636718 -5.203125 -3.339844 c 0.898438 2.691407 3.203125 4.8125 6.203125 5.339844 l 55.152344 9.722656 c 4.363281 0.773438 8.496094 -2.125 9.265625 -6.488281 l 15.28125 -86.664062 c 0.378906 -2.15625 -0.140625 -4.257813 -1.285156 -5.925781 z m 0 0" fill-opacity="0.25098"/>
    <path d="m 36 12 h 56 c 4.417969 0 8 3.582031 8 8 v 88 c 0 4.417969 -3.582031 8 -8 8 h -56 c -4.417969 0 -8 -3.582031 -8 -8 v -88 c 0 -4.417969 3.582031 -8 8 -8 z m 0 0" fill="#ffffff"/>
    <path d="m 28 106 v 2 c 0 4.433594 3.566406 8 8 8 h 56 c 4.433594 0 8 -3.566406 8 -8 v -2 c 0 4.433594 -3.566406 8 -8 8 h -56 c -4.433594 0 -8 -3.566406 -8 -8 z m 0 0" fill-opacity="0.14902"/>
    <g fill="#5e5c64" fill-opacity="0.2">
        <path d="m 52 22 h 40 v 6 h -40 z m 0 0"/>
        <path d="m 52 32 h 32 v 4 h -32 z m 0 0"/>
        <path d="m 52 64 h 32 v 4 h -32 z m 0 0"/>
        <path d="m 52 72 h 24 v 4 h -24 z m 0 0"/>
        <path d="m 52 80 h 32 v 4 h -32 z m 0 0"/>
        <path d="m 52 88 h 28 v 4 h -28 z m 0 0"/>
        <path d="m 52 96 h 32 v 4 h -32 z m 0 0"/>
    </g>
    <path d="m 40 44 h 28 c 2.210938 0 4 1.789062 4 4 v 4 c 0 2.210938 -1.789062 4 -4 4 h -28 c -2.210938 0 -4 -1.789062 -4 -4 v -4 c 0 -2.210938 1.789062 -4 4 -4 z m 0 0" fill="#ff7800"/>
    <path d="m 36 50 v 2 c 0 2.214844 1.785156 4 4 4 h 28 c 2.214844 0 4 -1.785156 4 -4 v -2 c 0 2.214844 -1.785156 4 -4 4 h -28 c -2.214844 0 -4 -1.785156 -4 -4 z m 0 0" fill="#e66100"/>
    <path d="m 40 44 c 2.210938 0 4 1.789062 4 4 v 52 c 0 2.210938 -1.789062 4 -4 4 s -4 -1.789062 -4 -4 v -52 c 0 -2.210938 1.789062 -4 4 -4 z m 0 0" fill="#ff7800"/>
    <path d="m 40 44 c -2.214844 0 -4 1.785156 -4 4 v 2 c 0 -2.214844 1.785156 -4 4 -4 h 28 c 2.214844 0 4 1.785156 4 4 v -2 c 0 -2.214844 -1.785156 -4 -4 -4 z m 0 0" fill="#ffffff" fill-opacity="0.2"/>
    <path d="m 44 104 c 0 8.835938 -7.164062 16 -16 16 s -16 -7.164062 -16 -16 s 7.164062 -16 16 -16 s 16 7.164062 16 16 z m 0 0" fill="url(#b)"/>
    <path d="m 28 88 c -8.835938 0 -16 7.164062 -16 16 c 0.011719 0.335938 0.035156 0.667969 0.070312 1 c 0.527344 -8.417969 7.496094 -14.980469 15.929688 -15 c 8.347656 0 15.292969 6.425781 15.949219 14.75 c 0.019531 -0.25 0.039062 -0.5 0.050781 -0.75 c 0 -8.835938 -7.164062 -16 -16 -16 z m 0 0" fill="#ffffff" fill-opacity="0.2"/>
    <path d="m 28 120 c -8.835938 0 -16 -7.164062 -16 -16 c 0.011719 -0.335938 0.035156 -0.667969 0.070312 -1 c 0.527344 8.417969 7.496094 14.980469 15.929688 15 c 8.347656 0 15.292969 -6.425781 15.949219 -14.75 c 0.019531 0.25 0.039062 0.5 0.050781 0.75 c 0 8.835938 -7.164062 16 -16 16 z m 0 0" fill-opacity="0.2"/>
    <g clip-path="url(#j)" mask="url(#f)">
        <g clip-path="url(#i)" mask="url(#g)">
            <path d="m 128 80.640625 v 47.359375 h -128 v -47.359375 z m 0 0" fill="url(#h)"/>
            <path d="m 13.308594 80.640625 l 47.355468 47.359375 h 21.214844 l -47.359375 -47.359375 z m 42.421875 0 l 47.363281 47.359375 h 21.214844 l -47.363282 -47.359375 z m 42.429687 0 l 29.839844 29.839844 v -21.210938 l -8.628906 -8.628906 z m -98.160156 7.90625 v 21.214844 l 18.238281 18.238281 h 21.214844 z m 0 0"/>
        </g>
    </g>
</svg>
